<svg xmlns="http://www.w3.org/2000/svg" version="1.1" xmlns:xlink="http://www.w3.org/1999/xlink" xmlns:svgjs="http://svgjs.dev/svgjs" width="100%" height="100%" viewBox="0 0 1000 600"><rect width="1000" height="600" x="0" y="0" fill="transparent"/><g><rect width="333.3333333333333" height="333.3333333333333" rx="13.333333333333334" ry="13.333333333333334" y="77.77780045403293" fill="#0078ff" transform="matrix(2.25000013732911,0,0,2.25000013732911,0,-250.00003738403575)" x="55.555564880371094"/><path d="M216.5006130796606 319.44445800781193L216.5006130796606 319.44445800781193L160.97525110190287 319.44445800781193L158.8617245448376 301.3889025631686Q161.69988877861095 297.67513447003955 170.84843944705068 294.1727190326171L170.84843944705068 294.1727190326171L170.84843944705068 194.8369708505492Q161.820661724729 191.63648777842175 158.8617245448376 187.50001437387974L158.8617245448376 187.50001437387974L160.97525110190287 169.44445892923636L209.4655889682862 169.44445892923636Q232.83515404212224 169.44445892923636 249.92452591782148 178.2004975227925Q267.01389779352075 186.95653611634864 276.31341464460786 204.10629446510686Q285.58273825916564 221.25605281386513 285.58273825916564 246.52779178905993L285.58273825916564 246.52779178905993Q285.58273825916564 271.76933752772516 277.18901850396355 287.92271907100985Q268.8254919852909 304.04590737776493 253.30616840912592 311.7451826927884Q237.8170380694904 319.44445800781193 216.5006130796606 319.44445800781193ZM211.91124112717603 193.11595636836742L211.91124112717603 193.11595636836742L202.15882572814624 193.11595636836742L202.15882572814624 295.7729605686808L217.7687290138998 295.7729605686808Q228.69868063758022 295.7729605686808 236.54892213525122 291.5761006910798Q244.39916363292227 287.37924081347876 248.6866032201118 276.87199450121136Q253.00423604383087 266.36474818894396 253.00423604383087 247.4637821214745L253.00423604383087 247.4637821214745Q253.00423604383087 193.11595636836742 211.91124112717603 193.11595636836742Z " fill="#ffffff" transform="matrix(2.25000013732911,0,0,2.25000013732911,0,-250.00003738403575)"/><path d="MNaN 244.4444580078119 " fill="#ffffff" transform="matrix(2.25000013732911,0,0,2.25000013732911,0,-250.00003738403575)"/></g></svg>